<svg version="1" xmlns="http://www.w3.org/2000/svg" width="560" height="560" viewBox="0 0 420.000000 420.000000"><path d="M188.8 105c-12 2.5-17.8 4.5-28.4 9.7-26.2 12.8-47.3 36.9-56.9 64.8-.9 2.7-2.7 9.7-3.9 15.5l-2.2 10.4L63 229.5c-38.9 27.1-40.2 28.3-40.8 38.8-.3 5.1.1 7 2 10.7 5.2 9.6 11.7 11.1 58.4 12.9l21.2.9 6 6c10.7 10.7 26.8 18.7 49.1 24.3 19.1 4.9 32.6 6.2 57.6 5.6 32.5-.7 51.8-4.8 74.2-15.8 10.4-5 13.5-7.1 20-13.4l7.8-7.5 22.5-1c43.4-2 49.9-3.1 54.4-9.3 2.8-3.8 2.9-16.1.3-22.9-1.8-4.6-2.9-5.5-36.5-28.9-19.1-13.3-34.9-24.3-35.1-24.5-.1-.1-.9-4-1.7-8.6-8-46.7-45.2-84.1-91.8-92.3-12-2-30.8-1.8-41.8.5zm37.2 13.1c26.2 4.1 50.3 19 65.5 40.4 6.3 8.7 13 23.5 15.5 33.5 1.1 4.7 2 8.8 2 9.2 0 .5-44.1.8-98 .8h-98v-2.4c0-1.3 1.1-6.3 2.5-11.2 10.7-36.9 41.4-63.9 80.5-70.7 5-.9 23.7-.7 30 .4zm122.4 121.5c34.3 24 35.6 25.1 35.6 31.3 0 2.6-.4 2.9-4.8 3.5-8.1 1-40.4 2.6-75.7 3.6-44.2 1.3-189.2 1.3-220 0-23.2-1-42.1-2.5-45.1-3.7-2.2-.8-2.9-5.3-1.3-8.1.8-1.4 16.7-13.3 35.4-26.4l34-23.8h208.2l33.7 23.6zm-56 56.7c-18.2 11.3-44.2 17.6-76.9 18.4-29 .7-50.3-2.5-71.2-10.8-6.2-2.4-19.3-9.4-19.3-10.2 0-.1 38.7-.3 86.1-.3l86.1-.1-4.8 3z"/><path d="M300.8 227.6c-15.6 4.8-19.9 25.2-7.5 36.1 13.6 12 35.1 2.5 35-15.6 0-14.7-13.6-24.9-27.5-20.5zM312 243c4.1 4.1 1 12-4.7 12-3 0-7.3-4.2-7.3-7.1 0-5.7 7.9-9 12-4.9zM107 228.6c-13.5 5.8-16.8 24.2-6.2 34.2 12.7 11.9 32 5.6 35.7-11.6 1.7-8-4-18.7-11.9-22.3-4.9-2.2-12.8-2.4-17.6-.3zm14.2 15.5c1.4 1.8 1.7 3.3 1.2 5.3-1.5 6.2-10 7.2-12.9 1.6-4-7.7 6.6-13.9 11.7-6.9zM202.5 228.4c-4 1.8-9.1 7.3-10.9 11.8-7.1 16.8 11.3 34.5 27.9 26.9 15.2-6.9 16.8-27.7 2.9-37.1-4.5-3-15.1-3.9-19.9-1.6zM216 243c2.9 2.9 2.6 7.4-.6 9.9-3.5 2.7-5.9 2.6-8.9-.4-4.6-4.5-1.9-11.5 4.5-11.5 1.7 0 3.9.9 5 2z"/></svg>