<svg version="1" xmlns="http://www.w3.org/2000/svg" width="400" height="400" viewBox="0 0 300.000000 300.000000"><path d="M141.8 11c-8.5 1-15.4 3.2-24.3 7.9-9.2 4.7-20.8 16.2-25.4 25.1l-3.4 6.5-9.3-.3c-32-1.2-59.8 19.2-65.9 48.3-1.8 8.8-1.8 14.2 0 22.8 1.7 8.3 5.2 16.2 10 22.7 1.9 2.6 3.5 5 3.5 5.4 0 .3-1.5 2.7-3.4 5.3C16.5 164.8 12 178 12 189c0 7.6 3.2 19.7 7.2 27.3 10.7 20.1 36.8 33.9 61.4 32.4l8-.5 2.7 5.2c8.6 16.4 24.7 28.8 43 33.1 8.1 1.9 23.5 1.9 31.7-.1 18.3-4.3 35-17.4 42.9-33.8l2.2-4.4 8.2.5c16.5 1.1 36.4-5.6 48.3-16.1 22.3-19.7 26.4-51.5 9.8-76.3-2.4-3.6-4.4-6.7-4.4-6.9 0-.3 1.8-3.1 4-6.3 5.2-7.5 7.8-13.5 9.5-21.9 1.8-8.5 1.8-13.9 0-22.7-4.3-20.6-20.7-38.2-41.8-45.1-7-2.3-10-2.7-20.8-2.8l-12.6-.1-3.4-6.5c-2.1-4-6.3-9.4-10.9-14.1-14.3-14.4-34.6-21.3-55.2-18.9zm18.4 17.1c15.1 3.2 26.3 12.3 34.1 28.1 5.9 11.9 6.6 12.3 20 10.9 16.3-1.6 27.3 1.1 38.8 9.5 10 7.3 16.9 21 16.9 33.4 0 9.2-3.2 17.8-10.1 27-9.3 12.5-9.3 12.7-.9 23.6 6 7.9 7.9 11.3 9.6 17.9 5.9 22-7.6 44.6-31 51.7-6.1 1.9-8.5 2-20.3 1.5-9.2-.4-14.2-.3-15.9.5-1.8.9-4.1 4.2-7.5 10.9-6 12-12.1 18.4-22.1 23.3-14.4 7.1-28.7 7.1-43.4.2-10.1-4.8-16.7-11.7-22.4-23.5-3.1-6.4-5.3-9.7-7.1-10.7-2-1-5.8-1.2-16.1-.7-12 .5-14.3.4-20.5-1.5-20.5-6.3-33.4-24.1-32-44.1.6-9.7 3.3-16 10.9-25.9 7.6-10 7.6-11.4-.2-21.8-7.2-9.4-10.1-16.5-10.7-25.9-1.2-17.6 8.2-33 25.2-41.1 9.1-4.4 17.6-5.5 30.7-4.2 12.6 1.2 13.6.7 19.7-11.8 10.6-21.4 31.7-32 54.3-27.3z"/><path d="M136.7 101.5c-23.6 6-39.7 25.4-39.7 48 0 18.6 10.5 34.7 28.5 43.6 35.1 17.3 77.3-6.5 77.5-43.6.1-20.7-13.7-39.2-34.8-46.6-7.6-2.7-23.6-3.4-31.5-1.4zm28.5 18.2c6.2 2.8 13.4 9.6 16.6 15.8 2.3 4.3 2.7 6.2 2.7 14 0 8.1-.3 9.5-2.9 14.3-3.7 6.6-9.2 11.6-16.5 15.1-4.8 2.2-6.9 2.6-15.1 2.6s-10.3-.4-15.2-2.7c-8-3.7-14-9.6-17.3-16.9-6.4-14.2-.7-31.4 13.3-40.1 5.9-3.7 11.2-4.8 20.7-4.5 6.5.2 10.3.9 13.7 2.4z"/></svg>