<svg height="300px" width="300px" fill="#000000" xmlns="http://www.w3.org/2000/svg" xmlns:xlink="http://www.w3.org/1999/xlink" version="1.0" x="0px" y="0px" viewBox="0 0 100 100" enable-background="new 0 0 100 100" xml:space="preserve"><path d="M59.9493484,58.3564644c-4.8208809,0.6013641-8.7652359,0.7289848-11.5666237,0.6978569  c-2.7808456-0.0311241-4.4430046-0.2178841-4.7449303-0.2521248c0.0074692,0.0186768,0.0529137,0.1202278,0.1375771,0.2975693  c0.0846672,0.1780434,0.2085495,0.4320374,0.3772545,0.7563744c0.1662178,0.3249626,0.3778763,0.7208939,0.6374741,1.1810188  c0.2583504,0.4625435,0.5658798,0.9897461,0.9238358,1.5767937c0.7545052,1.2393799,1.7318802,2.7285538,2.9483032,4.3763962  c1.2375908,1.6763916,2.7285538,3.5228958,4.4928055,5.4396744c1.802227,1.9573135,3.8901978,3.9911194,6.2863159,5.993103  c2.4490395,2.0469589,5.2211685,4.0613861,8.3244858,5.917778c0.0883942-0.0360336,0.1755524-0.0722961,0.2614594-0.109024  c0.0871582-0.0366516,0.1736908-0.0746994,0.2583542-0.111351c0.085907-0.0374298,0.1705704-0.0740814,0.2552338-0.1114349  c0.0846634-0.0380554,0.170578-0.0754089,0.2533722-0.1126022c0.7806549-0.3648834,1.5501022-0.748436,2.308342-1.1492691  c0.7588654-0.3996658,1.5052795-0.8173065,2.2404938-1.2513657c0.7333374-0.432579,1.4554749-0.881424,2.1645355-1.3451309  c0.7071991-0.4632416,1.403183-0.9406433,2.0848541-1.4312744c2.0145111-1.452446,3.9107437-3.0329742,5.6687698-4.7318573  c1.7418365-1.6815338,3.3423691-3.4762115,4.7891312-5.3724442c1.4280853-1.8731155,2.7017822-3.8423386,3.8036575-5.8959885  c1.086319-2.0244713,2.0051727-4.1267586,2.7416306-6.2975998c0.2801361-0.8372269,0.5279007-1.6727409,0.7457886-2.504364  c0.2154007-0.8266449,0.4009094-1.6502533,0.5571671-2.4708252c0.1543884-0.8136482,0.2795181-1.6248055,0.3772507-2.4302826  c0.0964966-0.8000298,0.1662216-1.5962486,0.2085495-2.3861618c-6.7569504,3.6604805-13.4640961,6.2943306-19.7099457,8.1637917  C70.5217896,56.6657486,64.8007278,57.7507439,59.9493484,58.3564644z"/><path d="M36.2365265,59.9613495c-2.2716179-3.3709259-3.7407913-6.2495079-4.654665-8.3208237  c-0.8939533-2.0275078-1.2699623-3.3154449-1.3365726-3.5484276c-0.0143185,0.0157204-0.0908909,0.1021729-0.2241116,0.2571831  c-0.1338444,0.1569557-0.3218479,0.3816109-0.5577888,0.6748238c-0.2384281,0.2932129-0.5247917,0.6556015-0.8534889,1.0850716  c-0.3299408,0.4308701-0.7009697,0.9307594-1.1081047,1.4971848c-0.8566017,1.1884117-1.8613682,2.6619453-2.925272,4.3839417  c-1.0800915,1.7448769-2.2255478,3.7531624-3.3467255,5.9892921c-1.1417217,2.2766685-2.2622776,4.7984657-3.2664204,7.5312996  c-1.0253086,2.7945404-1.9323349,5.8214417-2.6158743,9.0442047c0.0572729,0.049881,0.1139231,0.100853,0.171196,0.1513519  c0.0554047,0.050972,0.1120558,0.1026382,0.1674604,0.1537704c0.0566502,0.0509644,0.1108103,0.1019363,0.1674614,0.1524353  c0.0541601,0.050354,0.108943,0.1002274,0.1655922,0.1494904c0.5353775,0.4480667,1.0850716,0.8839111,1.6509533,1.3079376  c0.5671253,0.4256516,1.1510582,0.8385468,1.7486877,1.2380524c0.5994968,0.4016113,1.2139359,0.788826,1.8433151,1.1624222  c0.6312447,0.3753128,1.2755642,0.7357559,1.9342022,1.0812607c0.124506,0.0653687,0.249012,0.1306534,0.3747635,0.1954727  c0.1257515,0.0641251,0.251503,0.1276169,0.3772545,0.1917419c0.1269951,0.0634995,0.2539921,0.1258316,0.3822327,0.1886292  c0.126997,0.0628738,0.2552376,0.1238022,0.3841019,0.1855087c1.9055672,0.9082718,3.9144745,1.6920395,6.0167618,2.3376083  c2.1240749,0.6517868,4.3402843,1.1628876,6.6374226,1.5189743c2.3164368,0.3591995,4.7088242,0.5602798,7.1665764,0.5926514  c2.4726906,0.0317459,5.0039024-0.1082458,7.5824242-0.4295502c1.076355-0.1356354,2.1433754-0.3025513,3.2004318-0.5005112  c1.0576782-0.1974258,2.1060219-0.4245682,3.1419144-0.6805038c1.0371361-0.2563324,2.061821-0.5416031,3.0740547-0.8534164  c1.0122375-0.3118896,2.0107765-0.6504669,2.9962387-1.0140991c-7.6328468-4.5924911-13.6141243-9.3647308-18.2606926-13.8630676  C41.8424149,67.5325699,38.592804,63.4594269,36.2365265,59.9613495z"/><path d="M58.8194542,25.8641682c2.4228897,2.4863873,4.1790504,4.7660961,5.3655891,6.4966526  c1.2108231,1.7673683,1.8109436,2.9339104,1.9198914,3.1475182c0.0112-0.0149422,0.075943-0.095871,0.1867599-0.2421646  c0.1095581-0.14505,0.2651978-0.3554649,0.4569321-0.6275101c0.1936111-0.2708015,0.4214554-0.6037788,0.6785583-0.9955063  c0.2583542-0.390873,0.5428467-0.8397942,0.8491364-1.3433456c0.6418304-1.0520744,1.3620987-2.3257732,2.0767593-3.7756481  c0.7059479-1.4312763,1.4019394-3.0292339,2.0076599-4.7462521c0.5957642-1.6900158,1.1012573-3.49053,1.4374237-5.3574238  c0.33181-1.8321075,0.4980316-3.7233562,0.432663-5.6320353c-0.0585175-0.0249014-0.1170349-0.0497255-0.1749344-0.0747042  c-0.0572739-0.0249014-0.1145401-0.0497246-0.171196-0.0754042c-0.0578918-0.0242004-0.1151657-0.0490246-0.1724396-0.0727577  c-0.0554047-0.0242014-0.1120529-0.0473127-0.1693268-0.0691013c-0.5297775-0.2185087-1.0670166-0.4265118-1.6079941-0.6256437  c-0.5397339-0.1967192-1.0850754-0.3847237-1.6353912-0.562768c-0.5472031-0.1767988-1.1000137-0.3441811-1.6577988-0.5017595  c-0.5559235-0.1568775-1.1149521-0.3038731-1.6783447-0.4413748c-0.1058273-0.0255232-0.2122803-0.0516701-0.3187332-0.0765705  c-0.105835-0.0254459-0.2122879-0.0498028-0.3187408-0.0740042c-0.1058273-0.0250568-0.2129059-0.0492573-0.3206024-0.0734587  c-0.1052094-0.0231113-0.2129059-0.0474672-0.3199768-0.0697231c-1.5694046-0.3399019-3.1724205-0.6033096-4.8022041-0.7894468  c-1.6179581-0.184269-3.2670441-0.2913446-4.9391594-0.3194361c-1.6634026-0.0267687-3.3541985,0.0256796-5.0667801,0.1606903  c-1.706356,0.1344671-3.4382362,0.3504848-5.1912842,0.6542807c-0.7296066,0.1263733-1.4517441,0.2671432-2.1657867,0.4215307  c-0.7165298,0.1537657-1.4243507,0.3205261-2.1271858,0.5010595c-0.7009697,0.1798334-1.3969612,0.3735189-2.0842323,0.5782537  c-0.6885185,0.205513-1.3708153,0.4221535-2.045639,0.6512451c4.9123917,1.8763857,9.0752563,4.1223993,12.5975342,6.4885607  C53.5179825,20.8751278,56.4718895,23.4561405,58.8194542,25.8641682z"/><path d="M96.4987564,43.5874672c0-0.0691032-0.0018692-0.1382027-0.0043564-0.2073059  c-0.0006256-0.0690994-0.0037384-0.1375008-0.0074768-0.2059784c-0.0298767-0.6312447-0.0778122-1.2587585-0.1444244-1.8837776  c-0.0659866-0.6199646-0.1481628-1.2368927-0.2471466-1.8495407c-0.0989761-0.608757-0.2147675-1.2127686-0.3467484-1.8121872  c-0.1313553-0.5964622-0.2788925-1.187088-0.4432373-1.7729683c-0.4781036-1.7231636-1.0944138-3.4021301-1.8476715-5.0269356  c-0.7395706-1.5960903-1.6117325-3.1407452-2.6146317-4.6222916c-0.9842224-1.4561768-2.0966873-2.8531361-3.3342743-4.1827068  c-1.2164307-1.3060684-2.5548706-2.5474739-4.0134583-3.7159634c-0.562149-0.4494686-1.136116-0.8808823-1.718811-1.2954865  c-0.5801926-0.4120388-1.1691132-0.8068008-1.7679825-1.1859226c-0.5951385-0.3766308-1.1983719-0.7364531-1.8097-1.0806351  c-0.6094589-0.3430929-1.2245178-0.6699209-1.8482895-0.9817314c0.2739105,4.9328575-0.2869873,9.6503944-1.3334656,14.0043755  c-1.0894241,4.5406628-2.6930695,8.6282787-4.3944473,12.1106358c-1.7511749,3.5846901-3.5826645,6.4781342-5.0350266,8.5430717  c-1.4766464,2.0967598-2.5417938,3.3092957-2.7360229,3.5310707c0.0224113,0.0006218,0.1469193,0.0042801,0.3672943,0.0056038  c0.2222443,0.0017891,0.5391121,0.0017891,0.9474945-0.004982c0.4096222-0.0069237,0.910759-0.0206985,1.4965591-0.0468445  c0.5864258-0.0260696,1.2600021-0.0634193,2.0145111-0.1194458c1.5824738-0.1126785,3.4980011-0.2988167,5.6525803-0.6039352  c2.1614304-0.3062057,4.5631485-0.7320175,7.1080551-1.3233452c2.5474014-0.5927277,5.2329941-1.3497238,7.9522095-2.315815  c2.7142334-0.9643784,5.4533691-2.1322441,8.1097107-3.5453911c0-0.0677757,0-0.1362534,0-0.2048874  C96.5,43.7252007,96.5,43.6565666,96.4987564,43.5874672z"/><path d="M26.889225,43.5097275c2.2373753-3.3934174,4.3172512-5.9994087,5.8741989-7.7947884  c1.5351639-1.7696991,2.5822601-2.7744637,2.7727547-2.9556961c-0.0199203,0-0.1245079,0-0.3125114,0.0037346  c-0.1867599,0.0036583-0.4556923,0.0118294-0.8018188,0.0255241c-0.3461266,0.0148621-0.7694473,0.0360298-1.2649841,0.0684013  c-0.4949112,0.0324478-1.0620384,0.0754013-1.6982632,0.1321297c-1.3247452,0.1220169-2.9271412,0.3075294-4.7374592,0.5919495  c-1.804718,0.2826309-3.8198509,0.6642418-5.9787865,1.1790733c-2.1564465,0.5142097-4.4598122,1.1615639-6.8515749,1.9801941  c-2.3954983,0.8199501-4.8868675,1.8141327-7.4168324,3.0219193c-0.0261464,0.0589867-0.0510473,0.118824-0.0747037,0.1779671  c-0.0249014,0.0591393-0.04918,0.1176567-0.0734587,0.1761742c-0.0230336,0.0592194-0.0460672,0.1177368-0.0697236,0.1768761  c-0.0224109,0.0578957-0.0441995,0.1170387-0.0672331,0.1760216c-0.2029452,0.547905-0.3946848,1.0989227-0.5714831,1.6535187  c-0.1792893,0.5564651-0.3448825,1.1168213-0.4967799,1.6795883c-0.1531425,0.5653381-0.294457,1.133709-0.4195857,1.7044907  c-0.1282415,0.5739746-0.2421646,1.1509819-0.3430147,1.7287674c-0.3006821,1.7319603-0.4762359,3.4804916-0.5154552,5.2373543  c-0.0417097,1.7879066,0.0585179,3.5839081,0.3056626,5.3768768c0.2539926,1.8264275,0.6623726,3.6503639,1.2375913,5.458271  c0.5870466,1.8419876,1.3465343,3.6691208,2.2909136,5.4658203c0.376009,0.7090607,0.7775412,1.402565,1.2021065,2.0792542  c0.4264345,0.6817474,0.8783913,1.3471527,1.3515148,1.9952087c0.4768591,0.653038,0.9773731,1.2887192,1.499054,1.9068146  c0.5254164,0.6225281,1.0732431,1.2282562,1.6422367,1.8153763c1.6820784-7.7923737,3.9586735-14.4005394,6.3884106-19.9198189  C22.0832863,51.3722916,24.5877285,46.999012,26.889225,43.5097275z"/><path d="M38.5423775,27.8163471c4.0053635-0.5919495,7.3116264-0.816761,9.6921844-0.8895187  c2.3955002-0.0734596,3.8491096,0.0066929,4.1124382,0.0211658c-0.0074692-0.0131512-0.0504265-0.0866089-0.1301079-0.2136059  c-0.0796852-0.1276188-0.1967201-0.3081532-0.3529739-0.5378666c-0.1556358-0.2290916-0.3486176-0.5054951-0.5820694-0.8249302  c-0.233448-0.318037-0.5054932-0.6772366-0.8180046-1.0719204c-0.6486778-0.8204193-1.4660606-1.7773266-2.4521484-2.8001442  c-0.972393-1.0085011-2.1078911-2.0774632-3.4102249-3.1388016c-1.2811661-1.045229-2.7223282-2.0817432-4.3303223-3.0479107  c-1.5812302-0.9499817-3.3243179-1.8321075-5.2348633-2.5872374c-0.0585175,0.0237341-0.1189041,0.0460672-0.1774216,0.0678558  c-0.059761,0.0217886-0.1182823,0.044199-0.1786652,0.0666885c-0.0578957,0.0222549-0.1170349,0.0453663-0.1755562,0.0684004  c-0.0585175,0.0229559-0.1176567,0.0473127-0.1761742,0.0722132c-0.5453377,0.2204542-1.0875626,0.4500122-1.6260529,0.6866522  c-0.5391083,0.2378063-1.0732422,0.4850292-1.6048832,0.7396441c-0.531641,0.2552376-1.0595474,0.5184908-1.5824738,0.7905369  c-0.5254154,0.2727461-1.0470963,0.5528069-1.563797,0.8422842c-1.53018,0.8559799-3.0217648,1.7866631-4.4660358,2.7921276  c-1.4529877,1.0115356-2.8605289,2.0996418-4.2120438,3.2631512c-1.3633423,1.1736259-2.6719017,2.4274044-3.915719,3.758297  c-1.2562666,1.3470783-2.4490366,2.7777328-3.565856,4.2904816c-0.4370174,0.5957623-0.8553581,1.1965046-1.255023,1.8016052  c-0.4021549,0.6089134-0.7856331,1.2220268-1.1516819,1.8389549c-0.3672934,0.6200409-0.71591,1.244442-1.0458517,1.8726501  c-0.331809,0.6318703-0.6461868,1.267395-0.9400215,1.9054909c6.2464743-2.999897,12.040369-5.1433487,17.2577991-6.6847363  C29.8699017,29.3577328,34.5588036,28.4040947,38.5423775,27.8163471z"/></svg>